HIERARCHY
ROOT Hips
{
	OFFSET -0.001795 -0.223333 0.028219
	CHANNELS 6 Xposition Yposition Zposition Zrotation Yrotation Xrotation 
	JOINT LeftUpLeg
	{
		OFFSET 0.069520 -0.091406 -0.006815
		CHANNELS 3 Zrotation Yrotation Xrotation
		JOINT LeftLeg
		{
			OFFSET 0.034277 -0.375199 -0.004496
			CHANNELS 3 Zrotation Yrotation Xrotation
			JOINT LeftFoot
			{
				OFFSET -0.013596 -0.397961 -0.043693
				CHANNELS 3 Zrotation Yrotation Xrotation
				JOINT LeftToe
				{
					OFFSET 0.026358 -0.055791 0.119288
					CHANNELS 3 Zrotation Yrotation Xrotation
					End Site
					{
						OFFSET 0.000000 0.000000 0.000000
					}
				}
			}
		}
	}
	JOINT RightUpLeg
	{
		OFFSET -0.067670 -0.090522 -0.004320
		CHANNELS 3 Zrotation Yrotation Xrotation
		JOINT RightLeg
		{
			OFFSET -0.038290 -0.382569 -0.008850
			CHANNELS 3 Zrotation Yrotation Xrotation
			JOINT RightFoot
			{
				OFFSET 0.015774 -0.398415 -0.042312
				CHANNELS 3 Zrotation Yrotation Xrotation
				JOINT RightToe
				{
					OFFSET -0.025372 -0.048144 0.123348
					CHANNELS 3 Zrotation Yrotation Xrotation
					End Site
					{
						OFFSET 0.000000 0.000000 0.000000
					}
				}
			}
		}
	}
	JOINT Spine
	{
		OFFSET -0.002533 0.108963 -0.026696
		CHANNELS 3 Zrotation Yrotation Xrotation
		JOINT Spine1
		{
			OFFSET 0.005487 0.135180 0.001092
			CHANNELS 3 Zrotation Yrotation Xrotation
			JOINT Spine2
			{
				OFFSET 0.001457 0.052922 0.025425
				CHANNELS 3 Zrotation Yrotation Xrotation
				JOINT Neck
				{
					OFFSET -0.002778 0.213870 -0.042857
					CHANNELS 3 Zrotation Yrotation Xrotation
					JOINT Head
					{
						OFFSET 0.005152 0.064970 0.051349
						CHANNELS 3 Zrotation Yrotation Xrotation
						End Site
						{
							OFFSET 0.000000 0.000000 0.000000
						}
					}
				}
				JOINT LeftShoulder
				{
					OFFSET 0.078845 0.121749 -0.034090
					CHANNELS 3 Zrotation Yrotation Xrotation
					JOINT LeftArm
					{
						OFFSET 0.090977 0.030469 -0.008868
						CHANNELS 3 Zrotation Yrotation Xrotation
						JOINT LeftForeArm
						{
							OFFSET 0.259612 -0.012772 -0.027456
							CHANNELS 3 Zrotation Yrotation Xrotation
							JOINT LeftHand
							{
								OFFSET 0.249234 0.008986 -0.001171
								CHANNELS 3 Zrotation Yrotation Xrotation
								End Site
								{
									OFFSET 0.000000 0.000000 0.000000
								}
							}
						}
					}
				}
				JOINT RightShoulder
				{
					OFFSET -0.081759 0.118833 -0.038615
					CHANNELS 3 Zrotation Yrotation Xrotation
					JOINT RightArm
					{
						OFFSET -0.096012 0.032551 -0.009143
						CHANNELS 3 Zrotation Yrotation Xrotation
						JOINT RightForeArm
						{
							OFFSET -0.253742 -0.013329 -0.021401
							CHANNELS 3 Zrotation Yrotation Xrotation
							JOINT RightHand
							{
								OFFSET -0.255298 0.007772 -0.005559
								CHANNELS 3 Zrotation Yrotation Xrotation
								End Site
								{
									OFFSET 0.000000 0.000000 0.000000
								}
							}
						}
					}
				}
			}
		}
	}
}
MOTION
Frames: 7
Frame Time: 0.050000
0.024858 0.959969 -0.055032 1.446535 -6.326967 0.929690 4.856480 -0.075124 -1.365978 -4.863919 0.556775 -7.289195 7.607551 16.630349 23.770530 0.000000 0.000000 0.000000 -9.317556 0.599725 -9.825410 4.904684 -0.441636 2.167197 -0.165907 -10.227983 25.968941 0.000000 0.000000 0.000000 6.760217 -2.541056 29.780554 -4.729632 1.732928 -17.250690 -5.733037 2.968238 25.939781 17.306744 -9.656996 -22.212103 0.000000 0.000000 0.000000 1.815212 -34.520366 11.151725 -44.283459 -31.447154 4.738937 15.404274 -49.406719 -4.593899 0.000000 0.000000 0.000000 16.195849 23.407137 10.996037 57.383604 45.312848 15.663854 -5.169089 19.471308 -0.052155 0.000000 0.000000 0.000000 
0.024982 0.959785 -0.053051 1.470353 -5.883959 0.546195 5.202489 -0.055495 -1.077417 -5.550518 0.597650 -6.938699 7.357827 16.367855 23.408380 0.000000 0.000000 0.000000 -9.587785 0.550755 -9.076889 4.843291 -0.441799 2.188891 0.529290 -9.041112 25.480600 0.000000 0.000000 0.000000 6.598346 -2.512702 29.585858 -5.526924 2.002067 -17.062043 -4.674981 4.213526 26.140801 17.232499 -9.115130 -23.379452 0.000000 0.000000 0.000000 -0.630090 -32.198813 10.986063 -44.222925 -25.132226 2.062025 16.204162 -58.617647 -6.084399 0.000000 0.000000 0.000000 15.691895 22.867444 10.942925 55.849986 44.552834 14.674717 -5.249221 20.080679 -0.064985 0.000000 0.000000 0.000000 
0.025353 0.959944 -0.050399 1.539735 -5.489923 0.510106 5.066821 -0.032661 -0.509575 -5.528881 0.584394 -7.663748 7.083608 16.072497 23.381968 0.000000 0.000000 0.000000 -9.675311 0.523174 -8.461886 4.477315 -0.409457 1.556483 0.898273 -8.508391 25.759414 0.000000 0.000000 0.000000 6.457847 -2.481759 29.220336 -6.353401 2.279788 -16.772412 -3.981560 5.493129 25.823814 17.371127 -8.771727 -24.162649 0.000000 0.000000 0.000000 -1.206210 -29.421454 10.087371 -45.492067 -18.596121 -0.424054 16.782752 -68.781767 -7.986470 0.000000 0.000000 0.000000 15.852546 21.840544 10.789273 54.465695 43.811465 13.811021 -4.644202 20.891968 0.036033 0.000000 0.000000 0.000000 
0.025802 0.960080 -0.047431 1.440395 -4.899431 0.302183 5.454322 -0.017115 -0.148567 -6.094170 0.607698 -7.676531 6.735669 15.697490 23.094144 0.000000 0.000000 0.000000 -9.571362 0.489531 -7.729489 4.238307 -0.392119 1.461555 0.954153 -8.185507 25.266381 0.000000 0.000000 0.000000 6.214062 -2.451093 29.026486 -6.711911 2.403935 -16.843896 -2.949452 6.966917 25.709029 17.307022 -8.396874 -24.510637 0.000000 0.000000 0.000000 -2.906428 -26.857105 9.401063 -45.821122 -12.650307 -2.739323 11.863229 -76.287804 -5.803978 0.000000 0.000000 0.000000 15.940045 21.107426 10.818105 52.341862 43.105315 12.702517 -3.959837 21.050106 0.141079 0.000000 0.000000 0.000000 
0.026786 0.960377 -0.044493 1.410542 -4.449685 0.417328 5.279993 -0.017091 -0.001462 -5.873820 0.584581 -7.929283 6.494493 15.438688 22.957776 0.000000 0.000000 0.000000 -9.749645 0.465128 -7.152634 4.104536 -0.386314 0.796128 1.433449 -7.436468 25.405262 0.000000 0.000000 0.000000 6.287077 -2.488605 28.731054 -7.460694 2.625965 -17.327485 -2.162198 8.183452 26.207442 17.799302 -8.455879 -24.872075 0.000000 0.000000 0.000000 -3.466045 -24.773643 8.636944 -46.484618 -9.200113 -4.168701 2.106142 -79.116923 1.519398 0.000000 0.000000 0.000000 15.588272 20.208886 10.603834 51.678854 43.317709 12.583811 -4.237128 20.890482 0.101388 0.000000 0.000000 0.000000 
0.028423 0.959825 -0.042072 1.355501 -3.628178 0.429486 5.116106 -0.031660 -0.112537 -5.682564 0.563501 -7.682613 6.146614 15.055066 22.383210 0.000000 0.000000 0.000000 -9.800202 0.435615 -6.801987 4.166870 -0.400499 0.901417 0.821732 -8.025531 24.896604 0.000000 0.000000 0.000000 6.375189 -2.585919 28.800326 -7.658383 2.689238 -17.641259 -1.517680 9.132270 26.011312 18.046657 -8.223604 -25.536556 0.000000 0.000000 0.000000 -4.485791 -23.727846 8.262612 -46.543787 -7.144322 -4.935185 -1.881925 -77.400896 4.159268 0.000000 0.000000 0.000000 15.188611 19.460336 10.433695 51.743387 43.220622 12.638266 -4.364104 20.216050 0.083294 0.000000 0.000000 0.000000 
0.030279 0.959134 -0.040340 1.428794 -2.988794 0.364233 4.948294 -0.051324 -0.392160 -5.744592 0.564398 -7.040084 5.912671 14.782572 21.781493 0.000000 0.000000 0.000000 -10.368935 0.398663 -6.370763 4.699137 -0.462889 1.008578 0.710582 -7.852105 24.088024 0.000000 0.000000 0.000000 6.430679 -2.668754 29.026873 -7.803915 2.715702 -18.362519 -0.983196 9.593923 26.343501 18.260431 -8.197038 -25.834034 0.000000 0.000000 0.000000 -5.461548 -23.543382 8.220578 -45.805409 -7.691457 -4.672172 1.579890 -71.470552 1.004548 0.000000 0.000000 0.000000 15.040744 19.462456 10.577787 51.016409 44.021400 12.788027 -4.870669 19.063493 -0.003804 0.000000 0.000000 0.000000 
